<svg version="1.0" xmlns="http://www.w3.org/2000/svg" width="612.000000pt" height="408.000000pt" viewBox="0 0 612.000000 408.000000" preserveAspectRatio="xMidYMid meet">

<g transform="translate(0.000000,408.000000) scale(0.100000,-0.100000)" fill="#f44336" stroke="none">
<path d="M3789 3800 c-62 -19 -154 -92 -181 -144 -12 -22 -34 -79 -49 -126 -30 -94 -90 -263 -94 -268 -2 -2 -45 17 -95 42 -118 58 -246 97 -337 104 -72 5 -72 4 -84 -24 -6 -16 -22 -49 -34 -74 -12 -25 -33 -87 -45 -137 -21 -83 -26 -93 -46 -93 -27 0 -54 -25 -54 -49 0 -10 11 -28 25 -41 14 -13 25 -28 25 -34 0 -6 -22 -30 -49 -53 -37 -32 -50 -51 -56 -80 -4 -27 -18 -48 -46 -73 -35 -31 -41 -42 -48 -93 -10 -75 3 -84 42 -27 14 20 17 21 17 7 0 -18 -45 -67 -61 -67 -34 0 -139 -147 -139 -195 0 -8 -15 -21 -33 -28 -33 -14 -117 -105 -117 -126 0 -16 15 -14 30 5 17 19 50 37 50 27 0 -5 -13 -23 -30 -41 -17 -18 -30 -42 -30 -54 0 -11 -18 -40 -40 -65 -43 -50 -64 -107 -54 -148 5 -21 2 -27 -15 -32 -11 -3 -21 -8 -21 -12 0 -4 -13 -15 -30 -24 -37 -22 -38 -40 -5 -73 28 -28 31 -42 11 -50 -7 -3 -27 -24 -44 -47 -61 -85 -394 -369 -565 -482 -29 -19 -106 -58 -171 -86 -96 -43 -129 -63 -172 -105 -29 -30 -55 -66 -59 -83 -3 -16 -4 -78 -1 -136 7 -128 27 -174 97 -221 75 -50 153 -70 468 -121 154 -25 626 -25 800 0 252 37 470 109 674 223 154 87 334 230 427 339 23 28 23 28 2 10 -20 -16 -25 -17 -32 -5 -7 11 -10 9 -10 -12 0 -27 -49 -75 -151 -145 l-46 -32 -11 22 c-10 21 -10 21 -9 -6 2 -27 -3 -30 -78 -59 -174 -65 -214 -77 -219 -65 -3 7 -5 6 -5 -3 -1 -10 -40 -26 -128 -53 -160 -46 -193 -53 -193 -38 0 6 12 16 28 22 15 6 48 21 75 35 26 13 52 24 57 24 13 0 139 61 202 97 126 73 240 152 307 212 123 108 104 83 371 486 141 212 230 323 395 495 329 342 357 373 428 493 50 82 107 214 107 247 0 11 -26 46 -57 78 -40 39 -73 87 -106 151 -78 151 -119 204 -342 431 -116 118 -228 237 -250 264 -48 59 -130 126 -153 125 -10 0 -29 -4 -43 -9z m-826 -538 c-5 -14 -3 -14 9 2 8 10 19 17 25 15 6 -2 -8 -36 -31 -76 -35 -61 -45 -71 -68 -71 l-26 1 24 56 c14 31 32 66 40 79 17 25 36 21 27 -6z m79 4 c1 -4 -18 -39 -42 -77 -28 -45 -47 -66 -53 -60 -7 7 5 35 33 81 38 62 60 82 62 56z m42 -18 c-6 -22 -6 -22 12 -6 17 15 26 16 67 5 50 -13 62 -30 25 -35 -36 -6 -45 -20 -22 -36 20 -15 14 -21 -30 -28 -24 -4 -34 -28 -12 -28 9 0 16 -7 16 -15 0 -18 -8 -18 -66 -4 -35 9 -44 16 -44 33 -1 20 -1 20 -15 3 -7 -10 -21 -17 -29 -15 -12 2 -5 19 32 75 46 71 81 98 66 51z m1244 -39 c-3 -8 -7 -3 -11 10 -4 17 -3 21 5 13 5 -5 8 -16 6 -23z m29 -79 c-1 -12 -5 -16 -10 -11 -5 5 -6 14 -3 20 11 16 15 13 13 -9z m33 -76 c0 -8 -19 -13 -24 -6 -3 5 1 9 9 9 8 0 15 -2 15 -3z m-244 -37 c4 -12 -37 -142 -104 -322 -29 -77 -38 -103 -88 -245 -26 -75 -63 -161 -86 -205 -9 -16 -32 -73 -52 -125 -104 -275 -177 -348 -292 -294 -73 35 -151 175 -173 312 -10 63 2 93 23 57 6 -11 32 -41 57 -67 39 -40 52 -48 83 -48 74 0 106 30 210 200 32 52 70 113 85 135 14 22 46 82 71 133 25 51 66 135 92 185 27 51 71 138 100 195 52 100 64 115 74 89z m215 -24 c13 -15 12 -15 -8 -4 -24 12 -29 21 -14 21 5 0 15 -7 22 -17z m34 -51 c-8 -9 -25 20 -18 31 3 5 10 2 15 -7 6 -10 7 -20 3 -24z m44 -8 c6 4 11 2 11 -3 0 -6 -5 -11 -11 -11 -5 0 -7 -6 -4 -12 4 -7 0 -5 -8 4 -8 10 -17 15 -21 11 -4 -4 -4 1 0 11 5 13 9 14 14 6 4 -7 13 -9 19 -6z m111 12 c0 -2 -7 -7 -16 -10 -8 -3 -12 -2 -9 4 6 10 25 14 25 6z m-85 -57 c-4 -5 -12 -9 -18 -8 -9 0 -8 2 1 6 6 2 9 10 6 15 -4 7 -2 8 5 4 6 -4 9 -12 6 -17z m-60 -9 c-3 -5 -12 -10 -18 -10 -7 0 -6 4 3 10 19 12 23 12 15 0z m67 -32 c-7 -7 -12 -8 -12 -2 0 6 3 14 7 17 3 4 9 5 12 2 2 -3 -1 -11 -7 -17z m33 -8 c-3 -5 -12 -10 -18 -10 -7 0 -6 4 3 10 19 12 23 12 15 0z m-25 -324 c0 -2 -8 -10 -17 -17 -16 -13 -17 -12 -4 4 13 16 21 21 21 13z m-115 -124 l-38 -37 33 43 c18 24 35 40 38 37 3 -3 -11 -22 -33 -43z" fill="#f44336"/>
<path d="M3104 3212 c-19 -16 -35 -41 -39 -62 -4 -19 -5 -33 -2 -30 13 12 78 112 75 115 -2 2 -17 -9 -34 -23z" fill="#f44336"/>
<path d="M4546 2043 c-6 -14 -5 -15 5 -6 7 7 10 15 7 18 -3 3 -9 -2 -12 -12z" fill="#f44336"/>
<path d="M4331 1873 c0 -6 -4 -20 -7 -30 -5 -14 -4 -15 5 -7 7 7 11 20 8 30 -3 11 -5 14 -6 7z" fill="#f44336"/>
<path d="M4179 1703 l-34 -38 38 34 c20 19 37 36 37 38 0 8 -8 0 -41 -34z" fill="#f44336"/>
<path d="M4084 1653 c2 -12 -3 -31 -11 -43 -15 -21 -14 -21 3 -12 21 11 47 39 58 62 4 8 -1 5 -12 -7 l-19 -22 -12 22 -12 22 5 -22z" fill="#f44336"/>
<path d="M3904 1445 c6 -24 14 -41 19 -36 7 7 -16 81 -26 81 -2 0 1 -20 7 -45z" fill="#f44336"/>
<path d="M3771 1214 c0 -11 3 -14 6 -6 3 7 2 16 -1 19 -3 4 -6 -2 -5 -13z" fill="#f44336"/>
</g>
</svg>